<svg xmlns="http://www.w3.org/2000/svg" viewBox="0 0 900 1478" width="900" height="1478" font-family="-apple-system,BlinkMacSystemFont,'Segoe UI',Roboto,Helvetica,Arial,sans-serif" role="img" aria-label="Cómo se juega a Axioma, paso a paso">
<style>
  .bg{fill:#F2F2F7} .card{fill:#FFF}
  .t1{fill:#1C1C1E;font-size:34px;font-weight:700;letter-spacing:-.6px}
  .t2{fill:#6E6E73;font-size:16px}
  .h{fill:#1C1C1E;font-size:17px;font-weight:600;letter-spacing:-.2px}
  .p{fill:#6E6E73;font-size:13.5px}
  .lbl{fill:#6E6E73;font-size:11px;font-weight:600;letter-spacing:1px}
  .step{fill:#007AFF;font-size:13px;font-weight:700}
  .stepbg{fill:#E3F0FF}
  .c-open{fill:#E5E5EA} .c-full{fill:#1C1C1E} .c-void{fill:#EDEDF2}
  .c-clue{fill:#FFF;stroke:#D8D8DE;stroke-width:1.5}
  .c-clue-on{fill:#007AFF}
  .c-hi{fill:#CFE5FF;stroke:#007AFF;stroke-width:1.5}
  .num{fill:#1C1C1E;font-weight:700;text-anchor:middle;dominant-baseline:central}
  .num-on{fill:#FFF;font-weight:700;text-anchor:middle;dominant-baseline:central}
  .x{stroke:#AEAEB2;stroke-width:2.4;stroke-linecap:round}
  .nueva{fill:none;stroke:#007AFF;stroke-width:2.5}
  .ok{fill:#34C759} .sep{stroke:#E5E5EA;stroke-width:1}
  .cap{fill:#1C1C1E;font-size:12.5px;font-weight:600;text-anchor:middle}
  .capp{fill:#6E6E73;font-size:11.5px;text-anchor:middle}
  @media (prefers-color-scheme:dark){
    .bg{fill:#000} .card{fill:#1C1C1E}
    .t1,.h,.num,.cap{fill:#FFF} .t2,.p,.lbl,.capp{fill:#98989D}
    .c-open{fill:#2C2C2E} .c-full{fill:#FFF} .c-void{fill:#232325}
    .c-clue{fill:#1C1C1E;stroke:#48484A} .c-clue-on{fill:#0A84FF}
    .c-hi{fill:#123055;stroke:#0A84FF} .num{fill:#FFF}
    .step{fill:#0A84FF} .stepbg{fill:#10294A} .sep{stroke:#3A3A3C}
    .x{stroke:#636366} .nueva{stroke:#0A84FF} .ok{fill:#30D158}
  }
</style>
<rect class="bg" width="900" height="1478"/>
<text class="t1" x="30" y="52">Cómo se juega a Axioma</text>
<text class="t2" x="30" y="78">No solo deduces qué casillas están llenas: también qué regla gobierna el tablero.</text>
<rect class="c-full" x="30" y="86" width="15" height="15" rx="4"/>
<text class="p" x="51" y="97" font-size="12.5">casilla llena</text>
<rect class="c-void" x="156.2" y="86" width="15" height="15" rx="4"/><path class="x" d="M160.7 90.5l6 6M166.7 90.5l-6 6" stroke-width="1.8"/>
<text class="p" x="177.2" y="97" font-size="12.5">descartada por ti</text>
<rect class="c-clue" x="308" y="86" width="15" height="15" rx="4"/><text class="num" x="315.5" y="93.5" font-size="9">3</text>
<text class="p" x="329" y="97" font-size="12.5">pista, no se toca</text>
<rect class="c-hi" x="459.8" y="86" width="15" height="15" rx="4"/>
<text class="p" x="480.8" y="97" font-size="12.5">alcance de la pista</text>
<rect class="card" x="30" y="110" width="266.6666666666667" height="300" rx="20"/><rect class="stepbg" x="48" y="128" width="26" height="22" rx="7"/><text class="step" x="61" y="139" text-anchor="middle" dominant-baseline="central">1</text><text class="h" x="82" y="139" dominant-baseline="central">Lo que ves al abrir</text><rect class="c-open" x="74.33333333333334" y="166" width="40" height="40" rx="9.6"/><rect class="c-clue" x="120.33333333333334" y="166" width="40" height="40" rx="9.6"/><text class="num" x="140.33333333333334" y="186" font-size="18.400000000000002">0</text><rect class="c-open" x="166.33333333333334" y="166" width="40" height="40" rx="9.6"/><rect class="c-open" x="212.33333333333334" y="166" width="40" height="40" rx="9.6"/><rect class="c-clue" x="74.33333333333334" y="212" width="40" height="40" rx="9.6"/><text class="num" x="94.33333333333334" y="232" font-size="18.400000000000002">1</text><rect class="c-clue" x="120.33333333333334" y="212" width="40" height="40" rx="9.6"/><text class="num" x="140.33333333333334" y="232" font-size="18.400000000000002">1</text><rect class="c-open" x="166.33333333333334" y="212" width="40" height="40" rx="9.6"/><rect class="c-clue" x="212.33333333333334" y="212" width="40" height="40" rx="9.6"/><text class="num" x="232.33333333333334" y="232" font-size="18.400000000000002">3</text><rect class="c-open" x="74.33333333333334" y="258" width="40" height="40" rx="9.6"/><rect class="c-open" x="120.33333333333334" y="258" width="40" height="40" rx="9.6"/><rect class="c-clue" x="166.33333333333334" y="258" width="40" height="40" rx="9.6"/><text class="num" x="186.33333333333334" y="278" font-size="18.400000000000002">3</text><rect class="c-open" x="212.33333333333334" y="258" width="40" height="40" rx="9.6"/><rect class="c-open" x="74.33333333333334" y="304" width="40" height="40" rx="9.6"/><rect class="c-open" x="120.33333333333334" y="304" width="40" height="40" rx="9.6"/><rect class="c-open" x="166.33333333333334" y="304" width="40" height="40" rx="9.6"/><rect class="c-open" x="212.33333333333334" y="304" width="40" height="40" rx="9.6"/><text class="p" x="48" y="366">Solo hay números: son las pistas.</text><text class="p" x="48" y="384">El resto de casillas están sin decidir.</text><text class="p" x="48" y="402">Ninguna pista puede marcarse.</text>
<rect class="card" x="316.6666666666667" y="110" width="266.6666666666667" height="300" rx="20"/><rect class="stepbg" x="334.6666666666667" y="128" width="26" height="22" rx="7"/><text class="step" x="347.6666666666667" y="139" text-anchor="middle" dominant-baseline="central">2</text><text class="h" x="368.6666666666667" y="139" dominant-baseline="central">Elige el alcance</text><rect class="c-open" x="336" y="188" width="12" height="12" rx="3.12"/><rect class="c-open" x="350" y="188" width="12" height="12" rx="3.12"/><rect class="c-open" x="364" y="188" width="12" height="12" rx="3.12"/><rect class="c-open" x="378" y="188" width="12" height="12" rx="3.12"/><rect class="c-open" x="392" y="188" width="12" height="12" rx="3.12"/><rect class="c-open" x="336" y="202" width="12" height="12" rx="3.12"/><rect class="c-open" x="350" y="202" width="12" height="12" rx="3.12"/><rect class="c-hi" x="364" y="202" width="12" height="12" rx="3.12"/><rect class="c-open" x="378" y="202" width="12" height="12" rx="3.12"/><rect class="c-open" x="392" y="202" width="12" height="12" rx="3.12"/><rect class="c-open" x="336" y="216" width="12" height="12" rx="3.12"/><rect class="c-hi" x="350" y="216" width="12" height="12" rx="3.12"/><rect class="c-clue" x="364" y="216" width="12" height="12" rx="3.12"/><rect class="c-hi" x="378" y="216" width="12" height="12" rx="3.12"/><rect class="c-open" x="392" y="216" width="12" height="12" rx="3.12"/><rect class="c-open" x="336" y="230" width="12" height="12" rx="3.12"/><rect class="c-open" x="350" y="230" width="12" height="12" rx="3.12"/><rect class="c-hi" x="364" y="230" width="12" height="12" rx="3.12"/><rect class="c-open" x="378" y="230" width="12" height="12" rx="3.12"/><rect class="c-open" x="392" y="230" width="12" height="12" rx="3.12"/><rect class="c-open" x="336" y="244" width="12" height="12" rx="3.12"/><rect class="c-open" x="350" y="244" width="12" height="12" rx="3.12"/><rect class="c-open" x="364" y="244" width="12" height="12" rx="3.12"/><rect class="c-open" x="378" y="244" width="12" height="12" rx="3.12"/><rect class="c-open" x="392" y="244" width="12" height="12" rx="3.12"/><text class="cap" x="370" y="274">Orto</text><rect class="c-open" x="416" y="188" width="12" height="12" rx="3.12"/><rect class="c-open" x="430" y="188" width="12" height="12" rx="3.12"/><rect class="c-open" x="444" y="188" width="12" height="12" rx="3.12"/><rect class="c-open" x="458" y="188" width="12" height="12" rx="3.12"/><rect class="c-open" x="472" y="188" width="12" height="12" rx="3.12"/><rect class="c-open" x="416" y="202" width="12" height="12" rx="3.12"/><rect class="c-hi" x="430" y="202" width="12" height="12" rx="3.12"/><rect class="c-hi" x="444" y="202" width="12" height="12" rx="3.12"/><rect class="c-hi" x="458" y="202" width="12" height="12" rx="3.12"/><rect class="c-open" x="472" y="202" width="12" height="12" rx="3.12"/><rect class="c-open" x="416" y="216" width="12" height="12" rx="3.12"/><rect class="c-hi" x="430" y="216" width="12" height="12" rx="3.12"/><rect class="c-clue" x="444" y="216" width="12" height="12" rx="3.12"/><rect class="c-hi" x="458" y="216" width="12" height="12" rx="3.12"/><rect class="c-open" x="472" y="216" width="12" height="12" rx="3.12"/><rect class="c-open" x="416" y="230" width="12" height="12" rx="3.12"/><rect class="c-hi" x="430" y="230" width="12" height="12" rx="3.12"/><rect class="c-hi" x="444" y="230" width="12" height="12" rx="3.12"/><rect class="c-hi" x="458" y="230" width="12" height="12" rx="3.12"/><rect class="c-open" x="472" y="230" width="12" height="12" rx="3.12"/><rect class="c-open" x="416" y="244" width="12" height="12" rx="3.12"/><rect class="c-open" x="430" y="244" width="12" height="12" rx="3.12"/><rect class="c-open" x="444" y="244" width="12" height="12" rx="3.12"/><rect class="c-open" x="458" y="244" width="12" height="12" rx="3.12"/><rect class="c-open" x="472" y="244" width="12" height="12" rx="3.12"/><text class="cap" x="450" y="274">Rey</text><rect class="c-open" x="496" y="188" width="12" height="12" rx="3.12"/><rect class="c-open" x="510" y="188" width="12" height="12" rx="3.12"/><rect class="c-hi" x="524" y="188" width="12" height="12" rx="3.12"/><rect class="c-open" x="538" y="188" width="12" height="12" rx="3.12"/><rect class="c-open" x="552" y="188" width="12" height="12" rx="3.12"/><rect class="c-open" x="496" y="202" width="12" height="12" rx="3.12"/><rect class="c-open" x="510" y="202" width="12" height="12" rx="3.12"/><rect class="c-hi" x="524" y="202" width="12" height="12" rx="3.12"/><rect class="c-open" x="538" y="202" width="12" height="12" rx="3.12"/><rect class="c-open" x="552" y="202" width="12" height="12" rx="3.12"/><rect class="c-hi" x="496" y="216" width="12" height="12" rx="3.12"/><rect class="c-hi" x="510" y="216" width="12" height="12" rx="3.12"/><rect class="c-clue" x="524" y="216" width="12" height="12" rx="3.12"/><rect class="c-hi" x="538" y="216" width="12" height="12" rx="3.12"/><rect class="c-hi" x="552" y="216" width="12" height="12" rx="3.12"/><rect class="c-open" x="496" y="230" width="12" height="12" rx="3.12"/><rect class="c-open" x="510" y="230" width="12" height="12" rx="3.12"/><rect class="c-hi" x="524" y="230" width="12" height="12" rx="3.12"/><rect class="c-open" x="538" y="230" width="12" height="12" rx="3.12"/><rect class="c-open" x="552" y="230" width="12" height="12" rx="3.12"/><rect class="c-open" x="496" y="244" width="12" height="12" rx="3.12"/><rect class="c-open" x="510" y="244" width="12" height="12" rx="3.12"/><rect class="c-hi" x="524" y="244" width="12" height="12" rx="3.12"/><rect class="c-open" x="538" y="244" width="12" height="12" rx="3.12"/><rect class="c-open" x="552" y="244" width="12" height="12" rx="3.12"/><text class="cap" x="530" y="274">Rayo</text><text class="p" x="334.6666666666667" y="366">Define qué casillas cuenta cada pista.</text><text class="p" x="334.6666666666667" y="384">Aquí la correcta es Orto.</text>
<rect class="card" x="603.3333333333334" y="110" width="266.6666666666667" height="300" rx="20"/><rect class="stepbg" x="621.3333333333334" y="128" width="26" height="22" rx="7"/><text class="step" x="634.3333333333334" y="139" text-anchor="middle" dominant-baseline="central">3</text><text class="h" x="655.3333333333334" y="139" dominant-baseline="central">Elige la forma</text><rect class="c-full" x="619.6666666666667" y="196" width="22" height="22" rx="5.720000000000001"/><rect class="c-full" x="643.6666666666667" y="196" width="22" height="22" rx="5.720000000000001"/><rect class="c-open" x="667.6666666666667" y="196" width="22" height="22" rx="5.720000000000001"/><rect class="c-open" x="619.6666666666667" y="220" width="22" height="22" rx="5.720000000000001"/><rect class="c-full" x="643.6666666666667" y="220" width="22" height="22" rx="5.720000000000001"/><rect class="c-open" x="667.6666666666667" y="220" width="22" height="22" rx="5.720000000000001"/><rect class="c-open" x="619.6666666666667" y="244" width="22" height="22" rx="5.720000000000001"/><rect class="c-full" x="643.6666666666667" y="244" width="22" height="22" rx="5.720000000000001"/><rect class="c-full" x="667.6666666666667" y="244" width="22" height="22" rx="5.720000000000001"/><text class="cap" x="654.6666666666667" y="284">Cadena</text><rect class="c-full" x="701.6666666666667" y="196" width="22" height="22" rx="5.720000000000001"/><rect class="c-open" x="725.6666666666667" y="196" width="22" height="22" rx="5.720000000000001"/><rect class="c-full" x="749.6666666666667" y="196" width="22" height="22" rx="5.720000000000001"/><rect class="c-open" x="701.6666666666667" y="220" width="22" height="22" rx="5.720000000000001"/><rect class="c-full" x="725.6666666666667" y="220" width="22" height="22" rx="5.720000000000001"/><rect class="c-open" x="749.6666666666667" y="220" width="22" height="22" rx="5.720000000000001"/><rect class="c-full" x="701.6666666666667" y="244" width="22" height="22" rx="5.720000000000001"/><rect class="c-open" x="725.6666666666667" y="244" width="22" height="22" rx="5.720000000000001"/><rect class="c-full" x="749.6666666666667" y="244" width="22" height="22" rx="5.720000000000001"/><text class="cap" x="736.6666666666667" y="284">Aislado</text><rect class="c-full" x="783.6666666666667" y="196" width="22" height="22" rx="5.720000000000001"/><rect class="c-full" x="807.6666666666667" y="196" width="22" height="22" rx="5.720000000000001"/><rect class="c-open" x="831.6666666666667" y="196" width="22" height="22" rx="5.720000000000001"/><rect class="c-open" x="783.6666666666667" y="220" width="22" height="22" rx="5.720000000000001"/><rect class="c-open" x="807.6666666666667" y="220" width="22" height="22" rx="5.720000000000001"/><rect class="c-open" x="831.6666666666667" y="220" width="22" height="22" rx="5.720000000000001"/><rect class="c-open" x="783.6666666666667" y="244" width="22" height="22" rx="5.720000000000001"/><rect class="c-full" x="807.6666666666667" y="244" width="22" height="22" rx="5.720000000000001"/><rect class="c-full" x="831.6666666666667" y="244" width="22" height="22" rx="5.720000000000001"/><text class="cap" x="818.6666666666667" y="284">Parejas</text><text class="p" x="621.3333333333334" y="366">Define cómo se agrupan las llenas.</text><text class="p" x="621.3333333333334" y="384">Aquí la correcta es Aislado.</text>
<rect class="card" x="30" y="430" width="266.6666666666667" height="300" rx="20"/><rect class="stepbg" x="48" y="448" width="26" height="22" rx="7"/><text class="step" x="61" y="459" text-anchor="middle" dominant-baseline="central">4</text><text class="h" x="82" y="459" dominant-baseline="central">Empieza por lo seguro</text><rect class="c-void" x="74.33333333333334" y="486" width="40" height="40" rx="9.6"/><path class="x" d="M86.73333333333335 498.4L101.93333333333334 513.6M101.93333333333334 498.4L86.73333333333335 513.6"/><rect class="nueva" x="72.83333333333334" y="484.5" width="43" height="43" rx="11.1"/><rect class="c-clue-on" x="120.33333333333334" y="486" width="40" height="40" rx="9.6"/><text class="num-on" x="140.33333333333334" y="506" font-size="18.400000000000002">0</text><rect class="c-void" x="166.33333333333334" y="486" width="40" height="40" rx="9.6"/><path class="x" d="M178.73333333333335 498.4L193.93333333333334 513.6M193.93333333333334 498.4L178.73333333333335 513.6"/><rect class="nueva" x="164.83333333333334" y="484.5" width="43" height="43" rx="11.1"/><rect class="c-open" x="212.33333333333334" y="486" width="40" height="40" rx="9.6"/><rect class="c-clue" x="74.33333333333334" y="532" width="40" height="40" rx="9.6"/><text class="num" x="94.33333333333334" y="552" font-size="18.400000000000002">1</text><rect class="c-clue" x="120.33333333333334" y="532" width="40" height="40" rx="9.6"/><text class="num" x="140.33333333333334" y="552" font-size="18.400000000000002">1</text><rect class="c-open" x="166.33333333333334" y="532" width="40" height="40" rx="9.6"/><rect class="c-clue" x="212.33333333333334" y="532" width="40" height="40" rx="9.6"/><text class="num" x="232.33333333333334" y="552" font-size="18.400000000000002">3</text><rect class="c-open" x="74.33333333333334" y="578" width="40" height="40" rx="9.6"/><rect class="c-open" x="120.33333333333334" y="578" width="40" height="40" rx="9.6"/><rect class="c-clue" x="166.33333333333334" y="578" width="40" height="40" rx="9.6"/><text class="num" x="186.33333333333334" y="598" font-size="18.400000000000002">3</text><rect class="c-open" x="212.33333333333334" y="578" width="40" height="40" rx="9.6"/><rect class="c-open" x="74.33333333333334" y="624" width="40" height="40" rx="9.6"/><rect class="c-open" x="120.33333333333334" y="624" width="40" height="40" rx="9.6"/><rect class="c-open" x="166.33333333333334" y="624" width="40" height="40" rx="9.6"/><rect class="c-open" x="212.33333333333334" y="624" width="40" height="40" rx="9.6"/><text class="p" x="48" y="686">La pista de la fila 1, columna 2 vale 0</text><text class="p" x="48" y="704">y no admite ninguna llena cerca:</text><text class="p" x="48" y="722">el resto de su alcance se descarta.</text>
<rect class="card" x="316.6666666666667" y="430" width="266.6666666666667" height="300" rx="20"/><rect class="stepbg" x="334.6666666666667" y="448" width="26" height="22" rx="7"/><text class="step" x="347.6666666666667" y="459" text-anchor="middle" dominant-baseline="central">5</text><text class="h" x="368.6666666666667" y="459" dominant-baseline="central">Encadena la siguiente</text><rect class="c-void" x="361" y="486" width="40" height="40" rx="9.6"/><path class="x" d="M373.4 498.4L388.6 513.6M388.6 498.4L373.4 513.6"/><rect class="c-clue" x="407" y="486" width="40" height="40" rx="9.6"/><text class="num" x="427" y="506" font-size="18.400000000000002">0</text><rect class="c-void" x="453" y="486" width="40" height="40" rx="9.6"/><path class="x" d="M465.4 498.4L480.6 513.6M480.6 498.4L465.4 513.6"/><rect class="c-full" x="499" y="486" width="40" height="40" rx="9.6"/><rect class="nueva" x="497.5" y="484.5" width="43" height="43" rx="11.1"/><rect class="c-clue" x="361" y="532" width="40" height="40" rx="9.6"/><text class="num" x="381" y="552" font-size="18.400000000000002">1</text><rect class="c-clue" x="407" y="532" width="40" height="40" rx="9.6"/><text class="num" x="427" y="552" font-size="18.400000000000002">1</text><rect class="c-full" x="453" y="532" width="40" height="40" rx="9.6"/><rect class="nueva" x="451.5" y="530.5" width="43" height="43" rx="11.1"/><rect class="c-clue-on" x="499" y="532" width="40" height="40" rx="9.6"/><text class="num-on" x="519" y="552" font-size="18.400000000000002">3</text><rect class="c-open" x="361" y="578" width="40" height="40" rx="9.6"/><rect class="c-open" x="407" y="578" width="40" height="40" rx="9.6"/><rect class="c-clue" x="453" y="578" width="40" height="40" rx="9.6"/><text class="num" x="473" y="598" font-size="18.400000000000002">3</text><rect class="c-full" x="499" y="578" width="40" height="40" rx="9.6"/><rect class="nueva" x="497.5" y="576.5" width="43" height="43" rx="11.1"/><rect class="c-open" x="361" y="624" width="40" height="40" rx="9.6"/><rect class="c-open" x="407" y="624" width="40" height="40" rx="9.6"/><rect class="c-open" x="453" y="624" width="40" height="40" rx="9.6"/><rect class="c-open" x="499" y="624" width="40" height="40" rx="9.6"/><text class="p" x="334.6666666666667" y="686">La pista de la fila 2, columna 4 vale 3</text><text class="p" x="334.6666666666667" y="704">y solo le quedan justo esas casillas:</text><text class="p" x="334.6666666666667" y="722">todas ellas están llenas.</text>
<rect class="card" x="603.3333333333334" y="430" width="266.6666666666667" height="300" rx="20"/><rect class="stepbg" x="621.3333333333334" y="448" width="26" height="22" rx="7"/><text class="step" x="634.3333333333334" y="459" text-anchor="middle" dominant-baseline="central">6</text><text class="h" x="655.3333333333334" y="459" dominant-baseline="central">Encadena la siguiente</text><rect class="c-void" x="647.6666666666667" y="486" width="40" height="40" rx="9.6"/><path class="x" d="M660.0666666666667 498.4L675.2666666666668 513.6M675.2666666666668 498.4L660.0666666666667 513.6"/><rect class="c-clue" x="693.6666666666667" y="486" width="40" height="40" rx="9.6"/><text class="num" x="713.6666666666667" y="506" font-size="18.400000000000002">0</text><rect class="c-void" x="739.6666666666667" y="486" width="40" height="40" rx="9.6"/><path class="x" d="M752.0666666666667 498.4L767.2666666666668 513.6M767.2666666666668 498.4L752.0666666666667 513.6"/><rect class="c-full" x="785.6666666666667" y="486" width="40" height="40" rx="9.6"/><rect class="c-clue-on" x="647.6666666666667" y="532" width="40" height="40" rx="9.6"/><text class="num-on" x="667.6666666666667" y="552" font-size="18.400000000000002">1</text><rect class="c-clue" x="693.6666666666667" y="532" width="40" height="40" rx="9.6"/><text class="num" x="713.6666666666667" y="552" font-size="18.400000000000002">1</text><rect class="c-full" x="739.6666666666667" y="532" width="40" height="40" rx="9.6"/><rect class="c-clue" x="785.6666666666667" y="532" width="40" height="40" rx="9.6"/><text class="num" x="805.6666666666667" y="552" font-size="18.400000000000002">3</text><rect class="c-full" x="647.6666666666667" y="578" width="40" height="40" rx="9.6"/><rect class="nueva" x="646.1666666666667" y="576.5" width="43" height="43" rx="11.1"/><rect class="c-open" x="693.6666666666667" y="578" width="40" height="40" rx="9.6"/><rect class="c-clue" x="739.6666666666667" y="578" width="40" height="40" rx="9.6"/><text class="num" x="759.6666666666667" y="598" font-size="18.400000000000002">3</text><rect class="c-full" x="785.6666666666667" y="578" width="40" height="40" rx="9.6"/><rect class="c-open" x="647.6666666666667" y="624" width="40" height="40" rx="9.6"/><rect class="c-open" x="693.6666666666667" y="624" width="40" height="40" rx="9.6"/><rect class="c-open" x="739.6666666666667" y="624" width="40" height="40" rx="9.6"/><rect class="c-open" x="785.6666666666667" y="624" width="40" height="40" rx="9.6"/><text class="p" x="621.3333333333334" y="686">La pista de la fila 2, columna 1 vale 1</text><text class="p" x="621.3333333333334" y="704">y solo le quedan justo esas casillas:</text><text class="p" x="621.3333333333334" y="722">todas ellas están llenas.</text>
<rect class="card" x="30" y="750" width="266.6666666666667" height="300" rx="20"/><rect class="stepbg" x="48" y="768" width="26" height="22" rx="7"/><text class="step" x="61" y="779" text-anchor="middle" dominant-baseline="central">7</text><text class="h" x="82" y="779" dominant-baseline="central">Encadena la siguiente</text><rect class="c-void" x="74.33333333333334" y="806" width="40" height="40" rx="9.6"/><path class="x" d="M86.73333333333335 818.4L101.93333333333334 833.6M101.93333333333334 818.4L86.73333333333335 833.6"/><rect class="c-clue" x="120.33333333333334" y="806" width="40" height="40" rx="9.6"/><text class="num" x="140.33333333333334" y="826" font-size="18.400000000000002">0</text><rect class="c-void" x="166.33333333333334" y="806" width="40" height="40" rx="9.6"/><path class="x" d="M178.73333333333335 818.4L193.93333333333334 833.6M193.93333333333334 818.4L178.73333333333335 833.6"/><rect class="c-full" x="212.33333333333334" y="806" width="40" height="40" rx="9.6"/><rect class="c-clue" x="74.33333333333334" y="852" width="40" height="40" rx="9.6"/><text class="num" x="94.33333333333334" y="872" font-size="18.400000000000002">1</text><rect class="c-clue-on" x="120.33333333333334" y="852" width="40" height="40" rx="9.6"/><text class="num-on" x="140.33333333333334" y="872" font-size="18.400000000000002">1</text><rect class="c-full" x="166.33333333333334" y="852" width="40" height="40" rx="9.6"/><rect class="c-clue" x="212.33333333333334" y="852" width="40" height="40" rx="9.6"/><text class="num" x="232.33333333333334" y="872" font-size="18.400000000000002">3</text><rect class="c-full" x="74.33333333333334" y="898" width="40" height="40" rx="9.6"/><rect class="c-void" x="120.33333333333334" y="898" width="40" height="40" rx="9.6"/><path class="x" d="M132.73333333333335 910.4L147.93333333333334 925.6M147.93333333333334 910.4L132.73333333333335 925.6"/><rect class="nueva" x="118.83333333333334" y="896.5" width="43" height="43" rx="11.1"/><rect class="c-clue" x="166.33333333333334" y="898" width="40" height="40" rx="9.6"/><text class="num" x="186.33333333333334" y="918" font-size="18.400000000000002">3</text><rect class="c-full" x="212.33333333333334" y="898" width="40" height="40" rx="9.6"/><rect class="c-open" x="74.33333333333334" y="944" width="40" height="40" rx="9.6"/><rect class="c-open" x="120.33333333333334" y="944" width="40" height="40" rx="9.6"/><rect class="c-open" x="166.33333333333334" y="944" width="40" height="40" rx="9.6"/><rect class="c-open" x="212.33333333333334" y="944" width="40" height="40" rx="9.6"/><text class="p" x="48" y="1006">La pista de la fila 2, columna 2 vale 1</text><text class="p" x="48" y="1024">y ya tiene todas sus llenas:</text><text class="p" x="48" y="1042">el resto de su alcance se descarta.</text>
<rect class="card" x="316.6666666666667" y="750" width="266.6666666666667" height="300" rx="20"/><rect class="stepbg" x="334.6666666666667" y="768" width="26" height="22" rx="7"/><text class="step" x="347.6666666666667" y="779" text-anchor="middle" dominant-baseline="central">8</text><text class="h" x="368.6666666666667" y="779" dominant-baseline="central">Encadena la siguiente</text><rect class="c-void" x="361" y="806" width="40" height="40" rx="9.6"/><path class="x" d="M373.4 818.4L388.6 833.6M388.6 818.4L373.4 833.6"/><rect class="c-clue" x="407" y="806" width="40" height="40" rx="9.6"/><text class="num" x="427" y="826" font-size="18.400000000000002">0</text><rect class="c-void" x="453" y="806" width="40" height="40" rx="9.6"/><path class="x" d="M465.4 818.4L480.6 833.6M480.6 818.4L465.4 833.6"/><rect class="c-full" x="499" y="806" width="40" height="40" rx="9.6"/><rect class="c-clue" x="361" y="852" width="40" height="40" rx="9.6"/><text class="num" x="381" y="872" font-size="18.400000000000002">1</text><rect class="c-clue" x="407" y="852" width="40" height="40" rx="9.6"/><text class="num" x="427" y="872" font-size="18.400000000000002">1</text><rect class="c-full" x="453" y="852" width="40" height="40" rx="9.6"/><rect class="c-clue" x="499" y="852" width="40" height="40" rx="9.6"/><text class="num" x="519" y="872" font-size="18.400000000000002">3</text><rect class="c-full" x="361" y="898" width="40" height="40" rx="9.6"/><rect class="c-void" x="407" y="898" width="40" height="40" rx="9.6"/><path class="x" d="M419.4 910.4L434.6 925.6M434.6 910.4L419.4 925.6"/><rect class="c-clue-on" x="453" y="898" width="40" height="40" rx="9.6"/><text class="num-on" x="473" y="918" font-size="18.400000000000002">3</text><rect class="c-full" x="499" y="898" width="40" height="40" rx="9.6"/><rect class="c-open" x="361" y="944" width="40" height="40" rx="9.6"/><rect class="c-open" x="407" y="944" width="40" height="40" rx="9.6"/><rect class="c-full" x="453" y="944" width="40" height="40" rx="9.6"/><rect class="nueva" x="451.5" y="942.5" width="43" height="43" rx="11.1"/><rect class="c-open" x="499" y="944" width="40" height="40" rx="9.6"/><text class="p" x="334.6666666666667" y="1006">La pista de la fila 3, columna 3 vale 3</text><text class="p" x="334.6666666666667" y="1024">y solo le quedan justo esas casillas:</text><text class="p" x="334.6666666666667" y="1042">todas ellas están llenas.</text>
<rect class="card" x="603.3333333333334" y="750" width="266.6666666666667" height="300" rx="20"/><rect class="stepbg" x="621.3333333333334" y="768" width="26" height="22" rx="7"/><text class="step" x="634.3333333333334" y="779" text-anchor="middle" dominant-baseline="central">9</text><text class="h" x="655.3333333333334" y="779" dominant-baseline="central">Comprueba</text><rect class="c-void" x="647.6666666666667" y="806" width="40" height="40" rx="9.6"/><path class="x" d="M660.0666666666667 818.4L675.2666666666668 833.6M675.2666666666668 818.4L660.0666666666667 833.6"/><rect class="c-clue" x="693.6666666666667" y="806" width="40" height="40" rx="9.6"/><text class="num" x="713.6666666666667" y="826" font-size="18.400000000000002">0</text><rect class="c-void" x="739.6666666666667" y="806" width="40" height="40" rx="9.6"/><path class="x" d="M752.0666666666667 818.4L767.2666666666668 833.6M767.2666666666668 818.4L752.0666666666667 833.6"/><rect class="c-full" x="785.6666666666667" y="806" width="40" height="40" rx="9.6"/><rect class="c-clue" x="647.6666666666667" y="852" width="40" height="40" rx="9.6"/><text class="num" x="667.6666666666667" y="872" font-size="18.400000000000002">1</text><rect class="c-clue" x="693.6666666666667" y="852" width="40" height="40" rx="9.6"/><text class="num" x="713.6666666666667" y="872" font-size="18.400000000000002">1</text><rect class="c-full" x="739.6666666666667" y="852" width="40" height="40" rx="9.6"/><rect class="c-clue" x="785.6666666666667" y="852" width="40" height="40" rx="9.6"/><text class="num" x="805.6666666666667" y="872" font-size="18.400000000000002">3</text><rect class="c-full" x="647.6666666666667" y="898" width="40" height="40" rx="9.6"/><rect class="c-void" x="693.6666666666667" y="898" width="40" height="40" rx="9.6"/><path class="x" d="M706.0666666666667 910.4L721.2666666666668 925.6M721.2666666666668 910.4L706.0666666666667 925.6"/><rect class="c-clue" x="739.6666666666667" y="898" width="40" height="40" rx="9.6"/><text class="num" x="759.6666666666667" y="918" font-size="18.400000000000002">3</text><rect class="c-full" x="785.6666666666667" y="898" width="40" height="40" rx="9.6"/><rect class="c-void" x="647.6666666666667" y="944" width="40" height="40" rx="9.6"/><path class="x" d="M660.0666666666667 956.4L675.2666666666668 971.6M675.2666666666668 956.4L660.0666666666667 971.6"/><rect class="c-void" x="693.6666666666667" y="944" width="40" height="40" rx="9.6"/><path class="x" d="M706.0666666666667 956.4L721.2666666666668 971.6M721.2666666666668 956.4L706.0666666666667 971.6"/><rect class="c-full" x="739.6666666666667" y="944" width="40" height="40" rx="9.6"/><rect class="c-void" x="785.6666666666667" y="944" width="40" height="40" rx="9.6"/><path class="x" d="M798.0666666666667 956.4L813.2666666666668 971.6M813.2666666666668 956.4L798.0666666666667 971.6"/><text class="p" x="621.3333333333334" y="1006">Las 5 llenas están puestas y ninguna</text><text class="p" x="621.3333333333334" y="1024">toca a otra por un lado: Aislado encaja.</text><text class="p" x="621.3333333333334" y="1042">Pulsa Comprobar y la partida termina.</text>
<rect class="card" x="30" y="1078" width="840" height="252" rx="20"/>
<text class="lbl" x="56" y="1112">PARA GANAR LA PARTIDA</text>
<circle class="ok" cx="63" cy="1140" r="7"/>
<path d="M59.6 1140l2.4 2.4 4.4-4.8" fill="none" stroke="#fff" stroke-width="1.9" stroke-linecap="round" stroke-linejoin="round"/>
<text class="h" x="78" y="1144" font-size="14">Las cuatro condiciones</text>
<text class="p" x="78" y="1161" font-size="12">Una regla de cada eje, el número exacto de llenas,</text>
<text class="p" x="78" y="1176" font-size="12">todas las pistas cerradas y la forma cumplida.</text>
<circle class="ok" cx="457" cy="1140" r="7"/>
<path d="M453.6 1140l2.4 2.4 4.4-4.8" fill="none" stroke="#fff" stroke-width="1.9" stroke-linecap="round" stroke-linejoin="round"/>
<text class="h" x="472" y="1144" font-size="14">Solo una combinación sirve</text>
<text class="p" x="472" y="1161" font-size="12">Si el tablero no cuadra, quizá las casillas están</text>
<text class="p" x="472" y="1176" font-size="12">bien y la regla no. Cambia de regla antes de borrar.</text>
<circle class="ok" cx="63" cy="1198" r="7"/>
<path d="M59.6 1198l2.4 2.4 4.4-4.8" fill="none" stroke="#fff" stroke-width="1.9" stroke-linecap="round" stroke-linejoin="round"/>
<text class="h" x="78" y="1202" font-size="14">Nunca hace falta adivinar</text>
<text class="p" x="78" y="1219" font-size="12">Siempre hay una única solución. Si dudas, busca otra</text>
<text class="p" x="78" y="1234" font-size="12">pista que se cierre sola.</text>
<circle class="ok" cx="457" cy="1198" r="7"/>
<path d="M453.6 1198l2.4 2.4 4.4-4.8" fill="none" stroke="#fff" stroke-width="1.9" stroke-linecap="round" stroke-linejoin="round"/>
<text class="h" x="472" y="1202" font-size="14">Empieza por los extremos</text>
<text class="p" x="472" y="1219" font-size="12">Las pistas con valor cero vacían su alcance; las que</text>
<text class="p" x="472" y="1234" font-size="12">igualan sus casillas libres lo llenan entero.</text>
<circle class="ok" cx="63" cy="1256" r="7"/>
<path d="M59.6 1256l2.4 2.4 4.4-4.8" fill="none" stroke="#fff" stroke-width="1.9" stroke-linecap="round" stroke-linejoin="round"/>
<text class="h" x="78" y="1260" font-size="14">Descarta con la equis</text>
<text class="p" x="78" y="1277" font-size="12">Marcar lo que sabes que está vacío es lo que cierra</text>
<text class="p" x="78" y="1292" font-size="12">las pistas y destapa la siguiente deducción.</text>
<circle class="ok" cx="457" cy="1256" r="7"/>
<path d="M453.6 1256l2.4 2.4 4.4-4.8" fill="none" stroke="#fff" stroke-width="1.9" stroke-linecap="round" stroke-linejoin="round"/>
<text class="h" x="472" y="1260" font-size="14">Cada movida cuenta</text>
<text class="p" x="472" y="1277" font-size="12">Tocar una casilla o cambiar de regla suma una</text>
<text class="p" x="472" y="1292" font-size="12">movida; pedir una pista suma tres.</text>
</svg>